<?xml version="1.0" encoding="UTF-8"?>
<svg xmlns="http://www.w3.org/2000/svg" xmlns:xlink="http://www.w3.org/1999/xlink" width="750pt" height="250pt" viewBox="0 0 750 250" version="1.1">
<g id="surface1">
<path style=" stroke:none;fill-rule:nonzero;fill:rgb(65.098039%,65.098039%,65.098039%);fill-opacity:1;" d="M 688.34375 0 L 59.589844 0 C 57.300781 0 55.035156 0 52.75 0.0117188 C 50.835938 0.0234375 48.9375 0.0625 47.007812 0.09375 C 42.808594 0.140625 38.621094 0.511719 34.480469 1.195312 C 30.347656 1.898438 26.339844 3.21875 22.601562 5.113281 C 18.867188 7.027344 15.453125 9.511719 12.484375 12.480469 C 9.5 15.441406 7.015625 18.863281 5.121094 22.613281 C 3.222656 26.355469 1.902344 30.367188 1.214844 34.507812 C 0.519531 38.644531 0.144531 42.828125 0.09375 47.023438 C 0.0351562 48.9375 0.03125 50.859375 0 52.777344 L 0 197.242188 C 0.03125 199.183594 0.0351562 201.0625 0.09375 203.003906 C 0.144531 207.195312 0.519531 211.378906 1.214844 215.515625 C 1.902344 219.660156 3.21875 223.671875 5.121094 227.417969 C 7.015625 231.15625 9.5 234.5625 12.484375 237.507812 C 15.441406 240.488281 18.855469 242.976562 22.601562 244.875 C 26.339844 246.773438 30.347656 248.105469 34.480469 248.816406 C 38.625 249.496094 42.808594 249.867188 47.007812 249.921875 C 48.9375 249.964844 50.835938 249.988281 52.75 249.988281 C 55.035156 250 57.300781 250 59.589844 250 L 688.34375 250 C 690.589844 250 692.871094 250 695.117188 249.988281 C 697.023438 249.988281 698.976562 249.964844 700.878906 249.921875 C 705.066406 249.867188 709.246094 249.5 713.378906 248.816406 C 717.527344 248.097656 721.546875 246.769531 725.304688 244.875 C 729.046875 242.972656 732.460938 240.488281 735.414062 237.507812 C 738.390625 234.550781 740.878906 231.148438 742.796875 227.417969 C 744.683594 223.667969 745.988281 219.65625 746.667969 215.515625 C 747.363281 211.378906 747.753906 207.195312 747.828125 203.003906 C 747.851562 201.0625 747.851562 199.183594 747.851562 197.242188 C 747.902344 194.96875 747.902344 192.710938 747.902344 190.40625 L 747.902344 59.601562 C 747.902344 57.3125 747.902344 55.042969 747.851562 52.777344 C 747.851562 50.859375 747.851562 48.9375 747.828125 47.023438 C 747.753906 42.828125 747.363281 38.644531 746.667969 34.507812 C 745.988281 30.371094 744.683594 26.359375 742.796875 22.613281 C 738.941406 15.09375 732.824219 8.976562 725.304688 5.113281 C 721.546875 3.222656 717.527344 1.902344 713.378906 1.195312 C 709.246094 0.507812 705.066406 0.136719 700.878906 0.0898438 C 698.976562 0.0585938 697.023438 0.0234375 695.117188 0.0117188 C 692.871094 0 690.589844 0 688.34375 0 Z M 688.34375 0 "/>
<path style=" stroke:none;fill-rule:nonzero;fill:rgb(0%,0%,0%);fill-opacity:1;" d="M 52.78125 244.53125 C 50.875 244.53125 49.019531 244.507812 47.128906 244.464844 C 43.214844 244.414062 39.308594 244.074219 35.445312 243.445312 C 31.84375 242.824219 28.355469 241.671875 25.089844 240.019531 C 21.859375 238.382812 18.910156 236.238281 16.359375 233.667969 C 13.773438 231.125 11.617188 228.175781 9.980469 224.9375 C 8.328125 221.679688 7.183594 218.1875 6.589844 214.582031 C 5.945312 210.707031 5.597656 206.789062 5.546875 202.863281 C 5.507812 201.542969 5.457031 197.15625 5.457031 197.15625 L 5.457031 52.777344 C 5.457031 52.777344 5.511719 48.457031 5.546875 47.1875 C 5.597656 43.265625 5.941406 39.355469 6.582031 35.484375 C 7.179688 31.871094 8.324219 28.367188 9.980469 25.097656 C 11.609375 21.863281 13.75 18.910156 16.324219 16.359375 C 18.894531 13.785156 21.851562 11.628906 25.089844 9.96875 C 28.34375 8.324219 31.828125 7.179688 35.421875 6.570312 C 39.296875 5.9375 43.214844 5.59375 47.144531 5.546875 L 52.785156 5.46875 L 695.085938 5.46875 L 700.792969 5.546875 C 704.683594 5.59375 708.566406 5.933594 712.410156 6.5625 C 716.039062 7.179688 719.558594 8.335938 722.851562 9.988281 C 729.339844 13.332031 734.617188 18.621094 737.945312 25.113281 C 739.574219 28.359375 740.703125 31.835938 741.289062 35.417969 C 741.9375 39.320312 742.300781 43.261719 742.375 47.214844 C 742.394531 48.984375 742.394531 50.886719 742.394531 52.777344 C 742.445312 55.121094 742.445312 57.351562 742.445312 59.601562 L 742.445312 190.40625 C 742.445312 192.675781 742.445312 194.890625 742.394531 197.125 C 742.394531 199.15625 742.394531 201.019531 742.371094 202.9375 C 742.296875 206.816406 741.941406 210.691406 741.300781 214.519531 C 740.71875 218.152344 739.582031 221.671875 737.925781 224.957031 C 736.28125 228.160156 734.136719 231.082031 731.578125 233.617188 C 729.027344 236.203125 726.074219 238.363281 722.832031 240.007812 C 719.550781 241.671875 716.035156 242.828125 712.410156 243.445312 C 708.546875 244.074219 704.640625 244.417969 700.726562 244.464844 C 698.894531 244.507812 696.980469 244.53125 695.117188 244.53125 L 688.34375 244.542969 Z M 52.78125 244.53125 "/>
<path style=" stroke:none;fill-rule:nonzero;fill:rgb(100%,100%,100%);fill-opacity:1;" d="M 154.804688 126.878906 C 154.941406 116.277344 160.5 106.480469 169.535156 100.929688 C 163.808594 92.753906 154.566406 87.753906 144.589844 87.445312 C 134.09375 86.339844 123.917969 93.722656 118.570312 93.722656 C 113.121094 93.722656 104.886719 87.554688 96.019531 87.734375 C 84.351562 88.113281 73.738281 94.585938 68.0625 104.785156 C 55.976562 125.710938 64.992188 156.46875 76.570312 173.386719 C 82.363281 181.667969 89.132812 190.921875 97.992188 190.59375 C 106.660156 190.234375 109.898438 185.066406 120.363281 185.066406 C 130.730469 185.066406 133.769531 190.59375 142.808594 190.382812 C 152.109375 190.234375 157.972656 182.0625 163.5625 173.703125 C 167.722656 167.800781 170.925781 161.277344 173.050781 154.375 C 162.003906 149.699219 154.820312 138.875 154.804688 126.878906 Z M 154.804688 126.878906 "/>
<path style=" stroke:none;fill-rule:nonzero;fill:rgb(100%,100%,100%);fill-opacity:1;" d="M 137.734375 76.316406 C 142.804688 70.230469 145.304688 62.402344 144.699219 54.5 C 136.949219 55.316406 129.792969 59.019531 124.652344 64.875 C 119.574219 70.652344 117.003906 78.207031 117.503906 85.882812 C 125.355469 85.964844 132.8125 82.4375 137.734375 76.316406 Z M 137.734375 76.316406 "/>
<path style=" stroke:none;fill-rule:nonzero;fill:rgb(100%,100%,100%);fill-opacity:1;" d="M 264.390625 169.621094 L 234.804688 169.621094 L 227.699219 190.601562 L 215.171875 190.601562 L 243.191406 112.988281 L 256.210938 112.988281 L 284.230469 190.601562 L 271.488281 190.601562 Z M 237.871094 159.941406 L 261.320312 159.941406 L 249.757812 125.898438 L 249.4375 125.898438 Z M 237.871094 159.941406 "/>
<path style=" stroke:none;fill-rule:nonzero;fill:rgb(100%,100%,100%);fill-opacity:1;" d="M 344.75 162.3125 C 344.75 179.894531 335.335938 191.191406 321.132812 191.191406 C 313.792969 191.578125 306.878906 187.730469 303.328125 181.292969 L 303.0625 181.292969 L 303.0625 209.320312 L 291.445312 209.320312 L 291.445312 134.015625 L 302.6875 134.015625 L 302.6875 143.425781 L 302.902344 143.425781 C 306.609375 137.027344 313.53125 133.183594 320.921875 133.421875 C 335.28125 133.421875 344.75 144.773438 344.75 162.3125 Z M 332.808594 162.3125 C 332.808594 150.855469 326.890625 143.324219 317.855469 143.324219 C 308.980469 143.324219 303.011719 151.011719 303.011719 162.3125 C 303.011719 173.710938 308.980469 181.347656 317.855469 181.347656 C 326.890625 181.347656 332.808594 173.871094 332.808594 162.3125 Z M 332.808594 162.3125 "/>
<path style=" stroke:none;fill-rule:nonzero;fill:rgb(100%,100%,100%);fill-opacity:1;" d="M 407.027344 162.3125 C 407.027344 179.894531 397.617188 191.191406 383.414062 191.191406 C 376.074219 191.578125 369.15625 187.730469 365.609375 181.292969 L 365.339844 181.292969 L 365.339844 209.320312 L 353.726562 209.320312 L 353.726562 134.015625 L 364.96875 134.015625 L 364.96875 143.425781 L 365.183594 143.425781 C 368.886719 137.027344 375.808594 133.183594 383.199219 133.421875 C 397.5625 133.421875 407.027344 144.773438 407.027344 162.3125 Z M 395.089844 162.3125 C 395.089844 150.855469 389.167969 143.324219 380.136719 143.324219 C 371.261719 143.324219 365.292969 151.011719 365.292969 162.3125 C 365.292969 173.710938 371.261719 181.347656 380.136719 181.347656 C 389.167969 181.347656 395.089844 173.871094 395.089844 162.3125 Z M 395.089844 162.3125 "/>
<path style=" stroke:none;fill-rule:nonzero;fill:rgb(100%,100%,100%);fill-opacity:1;" d="M 448.191406 168.976562 C 449.050781 176.671875 456.527344 181.726562 466.746094 181.726562 C 476.535156 181.726562 483.578125 176.671875 483.578125 169.730469 C 483.578125 163.707031 479.332031 160.101562 469.273438 157.628906 L 459.214844 155.207031 C 444.960938 151.761719 438.34375 145.097656 438.34375 134.28125 C 438.34375 120.890625 450.015625 111.695312 466.585938 111.695312 C 482.988281 111.695312 494.230469 120.890625 494.609375 134.28125 L 482.882812 134.28125 C 482.179688 126.539062 475.777344 121.863281 466.421875 121.863281 C 457.066406 121.863281 450.664062 126.59375 450.664062 133.476562 C 450.664062 138.964844 454.75 142.191406 464.753906 144.664062 L 473.304688 146.765625 C 489.230469 150.53125 495.847656 156.925781 495.847656 168.28125 C 495.847656 182.800781 484.28125 191.894531 465.882812 191.894531 C 448.671875 191.894531 437.050781 183.011719 436.300781 168.976562 Z M 448.191406 168.976562 "/>
<path style=" stroke:none;fill-rule:nonzero;fill:rgb(100%,100%,100%);fill-opacity:1;" d="M 520.914062 120.625 L 520.914062 134.015625 L 531.675781 134.015625 L 531.675781 143.210938 L 520.914062 143.210938 L 520.914062 174.40625 C 520.914062 179.253906 523.070312 181.511719 527.796875 181.511719 C 529.074219 181.488281 530.351562 181.402344 531.621094 181.242188 L 531.621094 190.386719 C 529.492188 190.785156 527.332031 190.964844 525.167969 190.925781 C 513.710938 190.925781 509.242188 186.621094 509.242188 175.648438 L 509.242188 143.210938 L 501.015625 143.210938 L 501.015625 134.015625 L 509.242188 134.015625 L 509.242188 120.625 Z M 520.914062 120.625 "/>
<path style=" stroke:none;fill-rule:nonzero;fill:rgb(100%,100%,100%);fill-opacity:1;" d="M 537.90625 162.3125 C 537.90625 144.507812 548.390625 133.320312 564.742188 133.320312 C 581.148438 133.320312 591.585938 144.507812 591.585938 162.3125 C 591.585938 180.164062 581.203125 191.300781 564.742188 191.300781 C 548.289062 191.300781 537.90625 180.164062 537.90625 162.3125 Z M 579.75 162.3125 C 579.75 150.097656 574.15625 142.890625 564.742188 142.890625 C 555.332031 142.890625 549.742188 150.152344 549.742188 162.3125 C 549.742188 174.574219 555.332031 181.726562 564.742188 181.726562 C 574.15625 181.726562 579.75 174.574219 579.75 162.3125 Z M 579.75 162.3125 "/>
<path style=" stroke:none;fill-rule:nonzero;fill:rgb(100%,100%,100%);fill-opacity:1;" d="M 601.164062 134.015625 L 612.242188 134.015625 L 612.242188 143.644531 L 612.507812 143.644531 C 614.054688 137.445312 619.734375 133.179688 626.121094 133.421875 C 627.457031 133.417969 628.792969 133.5625 630.101562 133.855469 L 630.101562 144.71875 C 628.410156 144.203125 626.648438 143.96875 624.882812 144.019531 C 621.464844 143.878906 618.160156 145.242188 615.835938 147.742188 C 613.507812 150.246094 612.390625 153.640625 612.777344 157.039062 L 612.777344 190.601562 L 601.164062 190.601562 Z M 601.164062 134.015625 "/>
<path style=" stroke:none;fill-rule:nonzero;fill:rgb(100%,100%,100%);fill-opacity:1;" d="M 683.652344 173.980469 C 682.089844 184.253906 672.085938 191.300781 659.285156 191.300781 C 642.824219 191.300781 632.609375 180.273438 632.609375 162.578125 C 632.609375 144.832031 642.878906 133.320312 658.796875 133.320312 C 674.453125 133.320312 684.300781 144.074219 684.300781 161.230469 L 684.300781 165.210938 L 644.332031 165.210938 L 644.332031 165.910156 C 643.960938 170.125 645.414062 174.292969 648.328125 177.359375 C 651.238281 180.425781 655.328125 182.09375 659.554688 181.941406 C 665.191406 182.46875 670.507812 179.230469 672.621094 173.980469 Z M 644.386719 157.09375 L 672.679688 157.09375 C 672.886719 153.308594 671.511719 149.605469 668.875 146.878906 C 666.242188 144.152344 662.589844 142.648438 658.796875 142.730469 C 654.976562 142.707031 651.308594 144.210938 648.601562 146.910156 C 645.894531 149.605469 644.378906 153.273438 644.386719 157.09375 Z M 644.386719 157.09375 "/>
<path style=" stroke:none;fill-rule:nonzero;fill:rgb(100%,100%,100%);fill-opacity:1;" d="M 236.414062 54.570312 C 241.34375 54.214844 246.175781 56.089844 249.574219 59.679688 C 252.972656 63.269531 254.582031 68.195312 253.960938 73.097656 C 253.960938 85.011719 247.523438 91.863281 236.414062 91.863281 L 222.941406 91.863281 L 222.941406 54.570312 Z M 228.734375 86.585938 L 235.765625 86.585938 C 239.289062 86.796875 242.722656 85.410156 245.109375 82.808594 C 247.492188 80.207031 248.578125 76.667969 248.066406 73.175781 C 248.542969 69.695312 247.441406 66.1875 245.058594 63.605469 C 242.679688 61.027344 239.273438 59.644531 235.765625 59.839844 L 228.734375 59.839844 Z M 228.734375 86.585938 "/>
<path style=" stroke:none;fill-rule:nonzero;fill:rgb(100%,100%,100%);fill-opacity:1;" d="M 260.503906 77.777344 C 260.023438 72.734375 262.441406 67.851562 266.746094 65.179688 C 271.050781 62.507812 276.5 62.507812 280.804688 65.179688 C 285.113281 67.851562 287.53125 72.734375 287.046875 77.777344 C 287.539062 82.828125 285.125 87.71875 280.8125 90.394531 C 276.503906 93.074219 271.046875 93.074219 266.738281 90.394531 C 262.429688 87.71875 260.011719 82.828125 260.503906 77.777344 Z M 281.335938 77.777344 C 281.335938 71.675781 278.59375 68.109375 273.785156 68.109375 C 268.957031 68.109375 266.242188 71.675781 266.242188 77.777344 C 266.242188 83.925781 268.957031 87.464844 273.785156 87.464844 C 278.59375 87.464844 281.335938 83.902344 281.335938 77.777344 Z M 281.335938 77.777344 "/>
<path style=" stroke:none;fill-rule:nonzero;fill:rgb(100%,100%,100%);fill-opacity:1;" d="M 322.332031 91.859375 L 316.570312 91.859375 L 310.753906 71.132812 L 310.316406 71.132812 L 304.523438 91.859375 L 298.816406 91.859375 L 291.058594 63.71875 L 296.691406 63.71875 L 301.734375 85.191406 L 302.148438 85.191406 L 307.933594 63.71875 L 313.261719 63.71875 L 319.050781 85.191406 L 319.488281 85.191406 L 324.503906 63.71875 L 330.058594 63.71875 Z M 322.332031 91.859375 "/>
<path style=" stroke:none;fill-rule:nonzero;fill:rgb(100%,100%,100%);fill-opacity:1;" d="M 336.585938 63.71875 L 341.929688 63.71875 L 341.929688 68.1875 L 342.347656 68.1875 C 343.789062 64.898438 347.164062 62.882812 350.746094 63.175781 C 353.519531 62.964844 356.238281 64.03125 358.132812 66.066406 C 360.027344 68.101562 360.894531 70.890625 360.484375 73.640625 L 360.484375 91.859375 L 354.933594 91.859375 L 354.933594 75.035156 C 354.933594 70.515625 352.964844 68.265625 348.859375 68.265625 C 346.976562 68.175781 345.152344 68.914062 343.859375 70.285156 C 342.566406 71.65625 341.941406 73.523438 342.140625 75.398438 L 342.140625 91.859375 L 336.585938 91.859375 Z M 336.585938 63.71875 "/>
<path style=" stroke:none;fill-rule:nonzero;fill:rgb(100%,100%,100%);fill-opacity:1;" d="M 369.335938 52.730469 L 374.890625 52.730469 L 374.890625 91.859375 L 369.335938 91.859375 Z M 369.335938 52.730469 "/>
<path style=" stroke:none;fill-rule:nonzero;fill:rgb(100%,100%,100%);fill-opacity:1;" d="M 382.609375 77.777344 C 382.128906 72.730469 384.546875 67.851562 388.855469 65.179688 C 393.160156 62.507812 398.609375 62.507812 402.914062 65.179688 C 407.222656 67.851562 409.640625 72.730469 409.160156 77.777344 C 409.648438 82.828125 407.234375 87.71875 402.921875 90.394531 C 398.613281 93.074219 393.15625 93.074219 388.847656 90.394531 C 384.539062 87.71875 382.121094 82.828125 382.609375 77.777344 Z M 403.441406 77.777344 C 403.441406 71.675781 400.703125 68.109375 395.890625 68.109375 C 391.066406 68.109375 388.347656 71.675781 388.347656 77.777344 C 388.347656 83.925781 391.066406 87.464844 395.890625 87.464844 C 400.703125 87.464844 403.441406 83.902344 403.441406 77.777344 Z M 403.441406 77.777344 "/>
<path style=" stroke:none;fill-rule:nonzero;fill:rgb(100%,100%,100%);fill-opacity:1;" d="M 415.003906 83.902344 C 415.003906 78.835938 418.777344 75.914062 425.472656 75.5 L 433.097656 75.0625 L 433.097656 72.632812 C 433.097656 69.660156 431.132812 67.980469 427.335938 67.980469 C 424.234375 67.980469 422.085938 69.121094 421.46875 71.109375 L 416.09375 71.109375 C 416.660156 66.273438 421.207031 63.175781 427.589844 63.175781 C 434.648438 63.175781 438.625 66.6875 438.625 72.632812 L 438.625 91.859375 L 433.28125 91.859375 L 433.28125 87.90625 L 432.839844 87.90625 C 431.023438 90.792969 427.792969 92.480469 424.386719 92.324219 C 421.996094 92.574219 419.613281 91.800781 417.828125 90.195312 C 416.039062 88.589844 415.015625 86.304688 415.003906 83.902344 Z M 433.097656 81.496094 L 433.097656 79.144531 L 426.222656 79.582031 C 422.347656 79.84375 420.589844 81.160156 420.589844 83.640625 C 420.589844 86.175781 422.789062 87.648438 425.808594 87.648438 C 427.597656 87.832031 429.382812 87.277344 430.757812 86.117188 C 432.128906 84.957031 432.976562 83.289062 433.097656 81.496094 Z M 433.097656 81.496094 "/>
<path style=" stroke:none;fill-rule:nonzero;fill:rgb(100%,100%,100%);fill-opacity:1;" d="M 445.925781 77.777344 C 445.925781 68.882812 450.496094 63.25 457.609375 63.25 C 461.199219 63.085938 464.5625 65.007812 466.238281 68.1875 L 466.652344 68.1875 L 466.652344 52.730469 L 472.207031 52.730469 L 472.207031 91.859375 L 466.886719 91.859375 L 466.886719 87.414062 L 466.445312 87.414062 C 464.640625 90.566406 461.238281 92.457031 457.609375 92.324219 C 450.449219 92.324219 445.925781 86.691406 445.925781 77.777344 Z M 451.664062 77.777344 C 451.664062 83.746094 454.476562 87.339844 459.183594 87.339844 C 463.863281 87.339844 466.757812 83.695312 466.757812 77.800781 C 466.757812 71.9375 463.832031 68.242188 459.183594 68.242188 C 454.507812 68.242188 451.664062 71.855469 451.664062 77.777344 Z M 451.664062 77.777344 "/>
<path style=" stroke:none;fill-rule:nonzero;fill:rgb(100%,100%,100%);fill-opacity:1;" d="M 495.1875 77.777344 C 494.703125 72.734375 497.125 67.851562 501.429688 65.179688 C 505.734375 62.507812 511.183594 62.507812 515.488281 65.179688 C 519.796875 67.851562 522.214844 72.734375 521.730469 77.777344 C 522.222656 82.828125 519.808594 87.71875 515.496094 90.394531 C 511.1875 93.074219 505.730469 93.074219 501.421875 90.394531 C 497.113281 87.71875 494.695312 82.828125 495.1875 77.777344 Z M 516.019531 77.777344 C 516.019531 71.675781 513.277344 68.109375 508.46875 68.109375 C 503.640625 68.109375 500.925781 71.675781 500.925781 77.777344 C 500.925781 83.925781 503.640625 87.464844 508.46875 87.464844 C 513.277344 87.464844 516.019531 83.902344 516.019531 77.777344 Z M 516.019531 77.777344 "/>
<path style=" stroke:none;fill-rule:nonzero;fill:rgb(100%,100%,100%);fill-opacity:1;" d="M 529.183594 63.71875 L 534.53125 63.71875 L 534.53125 68.1875 L 534.945312 68.1875 C 536.390625 64.898438 539.761719 62.882812 543.34375 63.175781 C 546.117188 62.964844 548.835938 64.03125 550.730469 66.066406 C 552.625 68.101562 553.492188 70.890625 553.085938 73.640625 L 553.085938 91.859375 L 547.53125 91.859375 L 547.53125 75.035156 C 547.53125 70.515625 545.566406 68.265625 541.457031 68.265625 C 539.578125 68.175781 537.75 68.914062 536.460938 70.285156 C 535.167969 71.65625 534.539062 73.523438 534.738281 75.398438 L 534.738281 91.859375 L 529.183594 91.859375 Z M 529.183594 63.71875 "/>
<path style=" stroke:none;fill-rule:nonzero;fill:rgb(100%,100%,100%);fill-opacity:1;" d="M 584.46875 56.710938 L 584.46875 63.847656 L 590.566406 63.847656 L 590.566406 68.523438 L 584.46875 68.523438 L 584.46875 82.996094 C 584.46875 85.945312 585.683594 87.234375 588.449219 87.234375 C 589.15625 87.230469 589.863281 87.1875 590.566406 87.105469 L 590.566406 91.734375 C 589.570312 91.910156 588.558594 92.007812 587.546875 92.015625 C 581.371094 92.015625 578.910156 89.84375 578.910156 84.417969 L 578.910156 68.523438 L 574.441406 68.523438 L 574.441406 63.84375 L 578.910156 63.84375 L 578.910156 56.710938 Z M 584.46875 56.710938 "/>
<path style=" stroke:none;fill-rule:nonzero;fill:rgb(100%,100%,100%);fill-opacity:1;" d="M 598.152344 52.730469 L 603.660156 52.730469 L 603.660156 68.242188 L 604.097656 68.242188 C 605.609375 64.917969 609.042969 62.902344 612.679688 63.199219 C 615.4375 63.046875 618.121094 64.136719 619.992188 66.164062 C 621.867188 68.195312 622.738281 70.953125 622.371094 73.691406 L 622.371094 91.859375 L 616.8125 91.859375 L 616.8125 75.0625 C 616.8125 70.566406 614.71875 68.289062 610.792969 68.289062 C 608.863281 68.128906 606.957031 68.832031 605.59375 70.207031 C 604.226562 71.585938 603.535156 73.492188 603.707031 75.425781 L 603.707031 91.859375 L 598.152344 91.859375 Z M 598.152344 52.730469 "/>
<path style=" stroke:none;fill-rule:nonzero;fill:rgb(100%,100%,100%);fill-opacity:1;" d="M 654.757812 84.261719 C 653.199219 89.570312 648.0625 93 642.5625 92.402344 C 638.808594 92.503906 635.203125 90.949219 632.699219 88.148438 C 630.195312 85.351562 629.050781 81.597656 629.5625 77.878906 C 629.0625 74.148438 630.207031 70.386719 632.695312 67.566406 C 635.183594 64.746094 638.777344 63.140625 642.539062 63.175781 C 650.371094 63.175781 655.09375 68.523438 655.09375 77.363281 L 655.09375 79.300781 L 635.21875 79.300781 L 635.21875 79.609375 C 635.042969 81.699219 635.757812 83.765625 637.183594 85.300781 C 638.613281 86.835938 640.621094 87.695312 642.714844 87.671875 C 645.433594 88 648.078125 86.652344 649.410156 84.261719 Z M 635.21875 75.191406 L 649.433594 75.191406 C 649.578125 73.28125 648.90625 71.402344 647.585938 70.011719 C 646.265625 68.625 644.421875 67.859375 642.507812 67.902344 C 640.566406 67.878906 638.699219 68.636719 637.328125 70.011719 C 635.953125 71.382812 635.195312 73.25 635.21875 75.191406 Z M 635.21875 75.191406 "/>
</g>
</svg>
